HIERARCHY
ROOT Hips
{
	OFFSET 0.000000 0.000000 0.000000
	CHANNELS 6 Xposition Yposition Zposition Zrotation Yrotation Xrotation 
	JOINT LHipJoint
	{
		OFFSET 0.000000 0.000000 0.000000
		CHANNELS 3 Zrotation Yrotation Xrotation
		JOINT LeftUpLeg
		{
			OFFSET 1.363060 -1.794630 0.839290
			CHANNELS 3 Zrotation Yrotation Xrotation
			JOINT LeftLeg
			{
				OFFSET 2.448110 -6.726130 0.000000
				CHANNELS 3 Zrotation Yrotation Xrotation
				JOINT LeftFoot
				{
					OFFSET 2.562200 -7.039590 0.000000
					CHANNELS 3 Zrotation Yrotation Xrotation
					JOINT LeftToeBase
					{
						OFFSET 0.157640 -0.433110 2.322550
						CHANNELS 3 Zrotation Yrotation Xrotation
						End Site
						{
							OFFSET 0.000000 0.000000 0.000000
						}
					}
				}
			}
		}
	}
	JOINT RHipJoint
	{
		OFFSET 0.000000 0.000000 0.000000
		CHANNELS 3 Zrotation Yrotation Xrotation
		JOINT RightUpLeg
		{
			OFFSET -1.305520 -1.794630 0.839290
			CHANNELS 3 Zrotation Yrotation Xrotation
			JOINT RightLeg
			{
				OFFSET -2.542530 -6.985550 0.000000
				CHANNELS 3 Zrotation Yrotation Xrotation
				JOINT RightFoot
				{
					OFFSET -2.568260 -7.056230 0.000000
					CHANNELS 3 Zrotation Yrotation Xrotation
					JOINT RightToeBase
					{
						OFFSET -0.164730 -0.452590 2.363150
						CHANNELS 3 Zrotation Yrotation Xrotation
						End Site
						{
							OFFSET 0.000000 0.000000 0.000000
						}
					}
				}
			}
		}
	}
	JOINT LowerBack
	{
		OFFSET 0.000000 0.000000 0.000000
		CHANNELS 3 Zrotation Yrotation Xrotation
		JOINT Spine
		{
			OFFSET 0.028270 2.035590 -0.193380
			CHANNELS 3 Zrotation Yrotation Xrotation
			JOINT Spine1
			{
				OFFSET 0.056720 2.048850 -0.042750
				CHANNELS 3 Zrotation Yrotation Xrotation
				JOINT Neck
				{
					OFFSET 0.000000 0.000000 0.000000
					CHANNELS 3 Zrotation Yrotation Xrotation
					JOINT Neck1
					{
						OFFSET -0.054170 1.746240 0.172020
						CHANNELS 3 Zrotation Yrotation Xrotation
						JOINT Head
						{
							OFFSET 0.104070 1.761360 -0.123970
							CHANNELS 3 Zrotation Yrotation Xrotation
							End Site
							{
								OFFSET 0.000000 0.000000 0.000000
							}
						}
					}
				}
				JOINT LeftShoulder
				{
					OFFSET 0.000000 0.000000 0.000000
					CHANNELS 3 Zrotation Yrotation Xrotation
					JOINT LeftArm
					{
						OFFSET 3.362410 1.200890 -0.311210
						CHANNELS 3 Zrotation Yrotation Xrotation
						JOINT LeftForeArm
						{
							OFFSET 4.983000 -0.000000 -0.000000
							CHANNELS 3 Zrotation Yrotation Xrotation
							JOINT LeftHand
							{
								OFFSET 3.483560 -0.000000 -0.000000
								CHANNELS 3 Zrotation Yrotation Xrotation
								JOINT LeftFingerBase
								{
									OFFSET 0.000000 0.000000 0.000000
									CHANNELS 3 Zrotation Yrotation Xrotation
									JOINT LeftHandIndex1
									{
										OFFSET 0.715260 -0.000000 -0.000000
										CHANNELS 3 Zrotation Yrotation Xrotation
										End Site
										{
											OFFSET 0.000000 0.000000 0.000000
										}
									}
								}
								JOINT LThumb
								{
									OFFSET 0.000000 0.000000 0.000000
									CHANNELS 3 Zrotation Yrotation Xrotation
									End Site
									{
										OFFSET 0.000000 0.000000 0.000000
									}
								}
							}
						}
					}
				}
				JOINT RightShoulder
				{
					OFFSET 0.000000 0.000000 0.000000
					CHANNELS 3 Zrotation Yrotation Xrotation
					JOINT RightArm
					{
						OFFSET -3.136600 1.374050 -0.404650
						CHANNELS 3 Zrotation Yrotation Xrotation
						JOINT RightForeArm
						{
							OFFSET -5.241900 -0.000000 -0.000000
							CHANNELS 3 Zrotation Yrotation Xrotation
							JOINT RightHand
							{
								OFFSET -3.444170 -0.000000 -0.000000
								CHANNELS 3 Zrotation Yrotation Xrotation
								JOINT RightFingerBase
								{
									OFFSET 0.000000 0.000000 0.000000
									CHANNELS 3 Zrotation Yrotation Xrotation
									JOINT RightHandIndex1
									{
										OFFSET -0.622530 -0.000000 -0.000000
										CHANNELS 3 Zrotation Yrotation Xrotation
										End Site
										{
											OFFSET 0.000000 0.000000 0.000000
										}
									}
								}
								JOINT RThumb
								{
									OFFSET 0.000000 0.000000 0.000000
									CHANNELS 3 Zrotation Yrotation Xrotation
									End Site
									{
										OFFSET 0.000000 0.000000 0.000000
									}
								}
							}
						}
					}
				}
			}
		}
	}
}
MOTION
Frames: 9
Frame Time: 0.008333
-4.844700 17.110400 -26.014350 -3.607587 57.737940 7.294669 5.411845 19.413549 -0.555468 -25.137094 -11.543976 -10.619203 1.028030 1.557208 19.628410 8.554227 2.550430 -8.338947 -4.838915 1.010823 -9.661110 -2.287535 -17.529321 -2.454354 19.122271 13.360451 -19.867804 -5.673130 -3.243852 34.609625 -18.664004 -0.268827 -7.878380 2.422755 -0.832806 -8.582256 2.242348 -3.076726 10.149466 -6.559743 -4.070383 16.727722 0.391468 5.924894 -21.664796 -1.077021 0.882297 -8.294548 11.310278 -0.981036 17.635074 -1.244556 -6.303715 -4.957430 -4.250773 17.856145 3.807769 -69.422294 -9.814578 45.185080 8.376937 -20.017713 17.998166 7.517930 -10.812189 11.012555 -3.095194 16.943963 -0.000000 0.000000 0.000000 0.000000 0.000000 0.000000 0.000000 7.370627 -12.788906 -1.940151 75.609482 14.132384 44.155040 -5.220850 22.783320 10.163485 -4.438238 10.864385 4.997964 2.189505 -15.266718 -0.000000 0.000000 0.000000 0.000000 0.000000 0.000000 0.000000 
-4.825950 17.109950 -26.044800 -3.536547 56.861869 7.292683 5.352440 19.641371 -0.510345 -25.221804 -11.333477 -10.496249 1.029399 1.759659 19.545459 8.611814 2.774055 -8.491298 -4.812028 1.043099 -9.650429 -2.106235 -17.916670 -2.761905 19.455358 13.033442 -19.902020 -5.850178 -3.765984 34.783404 -18.745887 -1.195041 -7.653249 2.445615 -0.957595 -8.585576 2.021578 -3.052763 10.402362 -6.650310 -4.044561 16.643933 0.419647 6.031316 -21.673252 -1.111093 1.157511 -8.267953 11.472716 -0.731269 17.651702 -1.188606 -6.272046 -4.944636 -4.185275 17.755009 3.908798 -69.359416 -9.732534 45.228456 8.467350 -19.318307 18.084545 7.374335 -10.981986 10.947763 -3.132920 16.960009 0.000000 0.000000 0.000000 0.000000 0.000000 0.000000 0.000000 7.361914 -12.785327 -2.119483 75.850054 14.139539 44.172386 -5.048492 23.537585 10.259062 -4.590601 11.138718 5.141331 2.192279 -15.233043 -0.000000 0.000000 0.000000 0.000000 0.000000 0.000000 0.000000 
-4.804215 17.111000 -26.064300 -3.499491 56.011415 7.239226 5.264287 19.847025 -0.384499 -25.161914 -11.125018 -10.445207 0.969836 1.958064 19.449334 8.641669 2.962400 -8.653200 -4.764705 1.050643 -9.640644 -1.969351 -18.322603 -3.066371 19.875231 12.675591 -19.811570 -6.025883 -4.308795 34.884553 -18.702921 -2.098198 -7.487238 2.495851 -1.128695 -8.535797 1.736889 -2.996514 10.523099 -6.633735 -3.956693 16.806276 0.426551 6.061340 -21.839601 -1.150961 1.421584 -8.269087 11.622462 -0.486483 17.721508 -1.130003 -6.219570 -4.895922 -4.206108 17.780098 3.993765 -69.166681 -9.711966 45.330378 8.482155 -18.722649 18.068429 7.258050 -10.740219 10.880814 -3.177686 17.030997 -0.000000 0.000000 0.000000 0.000000 0.000000 0.000000 0.000000 7.411551 -12.930847 -2.330947 76.092309 14.115732 44.285424 -4.897012 24.282280 10.422776 -4.868823 11.461531 5.416713 2.150685 -15.194760 -0.000000 0.000000 0.000000 0.000000 0.000000 0.000000 0.000000 
-4.785315 17.112650 -26.088150 -3.441602 55.193706 7.230029 5.199229 20.087695 -0.324647 -25.204254 -10.911366 -10.375257 0.946816 2.149069 19.397512 8.678803 3.138642 -8.766095 -4.749123 1.076042 -9.645012 -1.787677 -18.696761 -3.371578 20.198124 12.289825 -19.776757 -6.158556 -4.878452 34.923094 -18.646732 -3.087105 -7.320017 2.509169 -1.300558 -8.443043 1.504129 -2.989873 10.754006 -6.715764 -3.946818 16.772007 0.459917 6.154425 -21.953512 -1.181262 1.695835 -8.250171 11.792585 -0.243507 17.768514 -1.073697 -6.197429 -4.864069 -4.190074 17.799626 4.095261 -69.063637 -9.659438 45.410187 8.555527 -18.109129 18.107740 7.336763 -10.448889 10.985009 -3.157067 17.098328 -0.000000 0.000000 0.000000 0.000000 0.000000 0.000000 0.000000 7.457553 -13.045554 -2.523712 76.298760 14.089624 44.468020 -4.772290 25.075852 10.619981 -5.213153 11.875567 5.757804 2.090222 -15.148241 -0.000000 0.000000 0.000000 0.000000 0.000000 0.000000 0.000000 
-4.762320 17.113550 -26.103600 -3.403151 54.356670 7.188406 5.124835 20.310302 -0.222731 -25.161244 -10.666627 -10.312269 0.877533 2.354073 19.297515 8.696436 3.294576 -8.909780 -4.718463 1.089573 -9.644153 -1.628820 -19.090163 -3.657814 20.571134 11.896927 -19.680858 -6.286466 -5.440112 34.895735 -18.551662 -4.039695 -7.173731 2.571723 -1.471390 -8.456035 1.218928 -2.960921 10.895438 -6.767905 -3.894590 16.841043 0.537364 6.245471 -22.118167 -1.230361 1.972273 -8.262175 11.964061 0.008051 17.876835 -1.011591 -6.155911 -4.793796 -4.139100 17.906706 4.161561 -68.842955 -9.604011 45.639835 8.472292 -17.657091 18.124011 6.983308 -10.615855 10.741395 -3.301513 17.133441 0.000000 0.000000 0.000000 0.000000 0.000000 0.000000 0.000000 7.523160 -13.231290 -2.699750 76.467683 14.035492 44.727942 -4.636607 25.875134 10.846230 -5.554682 12.262908 6.117051 2.056333 -15.113133 0.000000 0.000000 0.000000 0.000000 0.000000 0.000000 0.000000 
-4.740120 17.112650 -26.118600 -3.370190 53.551681 7.139603 5.042321 20.522704 -0.119547 -25.106997 -10.442953 -10.267211 0.813920 2.554685 19.224543 8.718829 3.444039 -9.088666 -4.678687 1.100506 -9.638767 -1.481686 -19.472996 -3.937437 20.934749 11.501312 -19.560481 -6.426521 -6.004849 34.839916 -18.400252 -5.002926 -7.098106 2.604936 -1.670758 -8.355963 0.947667 -2.933549 11.023064 -6.766136 -3.841373 16.896016 0.563811 6.306389 -22.281120 -1.265348 2.186461 -8.243502 12.072399 0.211837 17.966991 -0.965080 -6.094302 -4.746631 -4.143272 18.010528 4.240320 -68.731857 -9.566784 45.605971 8.541534 -17.126964 18.112505 7.044768 -10.410399 10.797284 -3.240324 17.170514 0.000000 0.000000 0.000000 0.000000 0.000000 0.000000 0.000000 7.576482 -13.373444 -2.877615 76.639689 13.927380 45.031205 -4.386281 26.704930 11.042277 -5.451946 12.658334 6.114786 2.263124 -15.099720 0.000000 0.000000 0.000000 0.000000 0.000000 0.000000 0.000000 
-4.718115 17.111900 -26.133150 -3.322540 52.756237 7.099573 4.973501 20.733443 -0.025153 -25.087800 -10.231234 -10.199012 0.773627 2.746641 19.160834 8.759244 3.598860 -9.254244 -4.640905 1.117487 -9.627258 -1.335377 -19.826747 -4.191671 21.258552 11.114416 -19.442972 -6.537668 -6.540981 34.720599 -18.344048 -5.918376 -7.002319 2.621471 -1.832879 -8.318876 0.708837 -2.919378 11.140461 -6.809305 -3.808518 16.978875 0.582796 6.369017 -22.436320 -1.315913 2.404928 -8.242495 12.181957 0.415742 18.054063 -0.917424 -6.033586 -4.697047 -4.125025 18.134907 4.316185 -68.550176 -9.522171 45.718983 8.588599 -16.714042 18.218875 7.062813 -10.504365 10.874199 -3.232922 17.182694 -0.000000 0.000000 0.000000 0.000000 0.000000 0.000000 0.000000 7.617486 -13.553887 -3.031683 76.846906 13.845143 45.245134 -4.263251 27.543216 11.311609 -5.773356 13.021472 6.477419 2.264985 -15.071116 0.000000 0.000000 0.000000 0.000000 0.000000 0.000000 0.000000 
-4.692825 17.110250 -26.147400 -3.264003 51.935935 7.059439 4.916747 20.945633 0.061229 -25.100510 -10.005057 -10.085606 0.745158 2.947101 19.081327 8.806451 3.763155 -9.429031 -4.608890 1.141316 -9.620518 -1.186488 -20.176696 -4.415780 21.530405 10.725924 -19.352543 -6.615227 -7.054687 34.586567 -18.328920 -6.763755 -6.969014 2.606625 -1.978990 -8.258428 0.473123 -2.911019 11.240896 -6.909491 -3.789881 17.073447 0.655118 6.477942 -22.631242 -1.363454 2.643017 -8.238288 12.309367 0.632505 18.130326 -0.864811 -5.978137 -4.653354 -4.089559 18.323041 4.350129 -68.441363 -9.469752 45.697292 8.525374 -16.316910 18.220762 6.780094 -10.227371 10.683709 -3.373741 17.266252 -0.000000 0.000000 0.000000 0.000000 0.000000 0.000000 0.000000 7.701196 -13.781411 -3.156154 77.001166 13.761382 45.430631 -4.175411 28.395535 11.612836 -6.070121 13.416059 6.835999 2.287414 -15.040102 0.000000 0.000000 0.000000 0.000000 0.000000 0.000000 0.000000 
-4.671255 17.108450 -26.159850 -3.229265 51.136598 7.017790 4.848250 21.127473 0.143954 -25.071791 -9.816602 -10.020971 0.718125 3.143903 19.038516 8.831020 3.942699 -9.609115 -4.574698 1.160359 -9.622127 -1.050426 -20.516475 -4.662153 21.845827 10.370445 -19.248583 -6.735741 -7.536692 34.467267 -18.397526 -7.555753 -6.920116 2.588883 -2.108911 -8.237234 0.231366 -2.888269 11.371430 -6.918838 -3.749780 17.096862 0.680196 6.538670 -22.779612 -1.407530 2.819770 -8.225161 12.385887 0.802611 18.185182 -0.827692 -5.915737 -4.633042 -4.069694 18.489493 4.403481 -68.276369 -9.417060 45.763426 8.527600 -16.012468 18.299225 6.648638 -10.320661 10.630763 -3.436237 17.289707 0.000000 0.000000 0.000000 0.000000 0.000000 0.000000 0.000000 7.741668 -13.972343 -3.270095 77.174538 13.670760 45.651348 -4.100438 29.224396 11.900308 -6.418903 13.789782 7.229967 2.289379 -15.012899 0.000000 0.000000 0.000000 0.000000 0.000000 0.000000 0.000000 
